<svg xmlns="http://www.w3.org/2000/svg" width="32" height="32" viewBox="0 0 32 32">
  <path id="Subtraction_6" data-name="Subtraction 6" d="M16,32A16,16,0,0,1,4.687,4.687,16,16,0,0,1,27.315,27.314,15.9,15.9,0,0,1,16,32Zm-.609-20.7V21.817a.68.68,0,0,0,1.359,0V11.3l4.233,4.236a.687.687,0,0,0,.483.2.68.68,0,0,0,.478-1.16l-5.39-5.393L16.448,9.1l-.035-.027-.068-.036a.6.6,0,0,0-.068-.021h-.059A.676.676,0,0,0,16.087,9a.69.69,0,0,0-.134.013H15.89a.384.384,0,0,0-.061.019l-.068.036L15.71,9.1l-.107.086-5.4,5.393a.681.681,0,0,0,.481,1.162.669.669,0,0,0,.479-.2L15.391,11.3Z" transform="translate(32) rotate(90)" fill="#fff"/>
</svg>
