<svg xmlns="http://www.w3.org/2000/svg" width="14.82" height="14.78" viewBox="0 0 14.82 14.78">
  <g id="noun-cross-1776308" transform="translate(-23.818 -23.858)">
    <g id="Group_227" data-name="Group 227" transform="translate(23.958 23.958)">
      <path id="Path_117" data-name="Path 117" d="M38.335,976.484a.558.558,0,0,0-.79,0L31.229,982.8l-6.317-6.317a.558.558,0,1,0-.79.79l6.317,6.317-6.317,6.317a.558.558,0,1,0,.79.79l6.317-6.317,6.317,6.317a.558.558,0,0,0,.79-.79l-6.317-6.317,6.317-6.317a.558.558,0,0,0,0-.79Z" transform="translate(-23.958 -976.32)" stroke="#000" stroke-width="0.2"/>
    </g>
  </g>
</svg>
