<svg xmlns="http://www.w3.org/2000/svg" width="32" height="31.965" viewBox="0 0 32 31.965">
  <path id="Path_118" data-name="Path 118" d="M22.233,52.091l6.5-6.448a14.3,14.3,0,0,1,.772-19.455A14.1,14.1,0,0,1,39.593,22a14.329,14.329,0,1,1-9.314,25.186l-6.5,6.5a1.048,1.048,0,0,1-.716.276,1.088,1.088,0,0,1-.772-.331A1.115,1.115,0,0,1,22.233,52.091Zm25.958-7.22a11.87,11.87,0,0,0,3.527-8.542,12.324,12.324,0,0,0-3.527-8.6,12,12,0,0,0-8.6-3.527,12.125,12.125,0,1,0,8.6,20.667Z" transform="translate(-21.95 -22)"/>
</svg>
