<?xml version="1.0" encoding="UTF-8"?>
<svg id="Laag_1" data-name="Laag 1" xmlns="http://www.w3.org/2000/svg" viewBox="0 0 1500 1267.08">
  <path fill='#29593f' d="m1093.01,562.25c0-110.24-2.39-201.25.91-292.06,1.92-52.86-13.16-99.07-37.23-144.19-44.38-83.22-122.94-98-187.61-29.01-34.94,37.28-54.88,30.65-71.03-8.12C772.28,27.01,730.57-7.04,660.84,1.22c-56.35,6.67-93.54,48.53-125.05,139.24-55.09-24.03-74.51-117.88-158.73-82.26-66.65,28.19-95.75,82.25-106.39,151.47-36.96-18.02-49.7-60.35-93.6-67.62C72.92,124.81,5.72,171,6.6,281.93c1.54,195.3-24.95,393.41,18.51,585.45,62.06,274.25,396.58,485.25,701.21,365.29,79.48-31.3,150.7-74.43,210.17-132.72,172.95-169.51,342.98-341.9,513.61-513.69,53.89-54.26,69.82-116.59,19.3-179.53-51.92-64.69-109.37-68.11-188.04-9.21-60.37,45.19-114.01,99.07-188.35,164.72Z"/>
</svg>