<?xml version="1.0" encoding="UTF-8"?>
<svg id="Laag_1" data-name="Laag 1" xmlns="http://www.w3.org/2000/svg" viewBox="0 0 1500 1783.88">
  <path fill='#29593f' d="m1072.81,1101.71c-20.41-126.97,1.36-239.16,12.89-350.49,18.13-175.14,35.86-349.86,30.63-526.15-2.13-71.88-46.98-95.79-111.18-98.95-65.25-3.21-111.78,22.3-121.24,89.24-21.66,153.37-39.48,307.29-59.05,462.53-6.38-1.16-14.78-3.82-20.91-10.67-12.95-14.44-6.43-37.04-3.07-67.93,2.56-23.57-.11-47.42.78-71.11,0,0,5.7-150.73,9.24-281.35,1.52-56.08,1.57-77.02-4.05-106.89-7.85-41.68-17.2-92.18-59.74-120.63-21.68-14.49-48.72-20.91-80.63-18.97-68.45,4.17-124.44,71.99-124.99,155.99-1.08,164.34-.32,328.68-.32,494.35-24.89,4.83-41.25-9.07-61.53-22.26-64.8-42.12-140.39-20.92-174.45,49.74-19.87,41.22-30.16,60.56-80.45,26.43-108.79-73.85-191.61-35.49-205.99,96.61-22.35,205.27-35.82,418.65,25.85,613,108.87,343.1,531.85,501.03,837.1,238.24,203.44-175.14,385.94-374.7,574.86-566.23,58.7-59.51,56.71-143.16,1.23-188.02-61.98-50.11-123.96-46.41-182.51,11.28-63.16,62.22-128.52,122.21-202.47,192.23Z"/>
</svg>