<?xml version="1.0" encoding="UTF-8"?>
<svg id="Laag_1" data-name="Laag 1" xmlns="http://www.w3.org/2000/svg" viewBox="0 0 1500 1687.6">
  <path fill='#29593f' d="m816.53,532.1c-104.45-117.87-174.41-112.12-269.12,7.9-13.19,16.71-24.19,20.74-45.16,10.34-157.04-77.87-184.3-68.4-244.81,83.7-58.45-32.36-102.3-112-187.9-57.88-41.42,26.18-66.71,55.51-66.15,108.16,1.98,184.89-10.82,370.71,3.43,554.52,22.03,284.3,383.16,546.32,703.06,413.01,124.07-51.71,219.07-138.6,310.08-235.96,131.47-140.64,274.16-270.78,410.72-406.74,100.27-99.82,90.25-207.92-20.3-243.42-54.41-17.47-100.01-3.14-138.41,37.62-58.49,62.1-116.93,124.26-192.36,204.42,0-105.58.05-185.07-.01-264.56-.14-184.91-.83-369.82-.24-554.73.21-67.29-18.32-126.75-74.07-166.86-80.89-58.19-189.04,7.23-194.11,122.76-5.42,123.45-12.39,247.47,5.36,387.71Z"/>
</svg>