<?xml version="1.0" encoding="UTF-8"?>
<svg id="Laag_1" data-name="Laag 1" xmlns="http://www.w3.org/2000/svg" viewBox="0 0 1500 1786.04">
  <path fill='#29593f' d="m260.24,729.89c-27.8,4.35-42.44-19.99-61.51-31.56-75.64-45.89-191.25-9.65-189.8,74.89,3.68,214.1-36.11,429.45,27.58,642.81,102.33,342.79,561.4,517.15,880.96,213.38,176.85-168.11,343.34-347.03,515.68-519.91,78.14-78.39,87.77-133.67,28.92-198.35-57.22-62.88-123.83-60.08-202.78,10.67-61.12,54.76-120.65,111.28-185.93,171.69-6.79-169.61-6-337.5,21.04-505.93,17.46-108.73,22.23-219.54,31.2-329.54,5.87-71.97-37.77-113.29-99.75-129.07-69.76-17.77-121.09,14.37-146.04,82.79-17.46,47.86-30.29,96.4-27.32,148.71,6.64,117.09-11.51,232.76-21.56,371.26-42.55-108.99-26.44-202.16-31.65-292.25-5.72-98.74-.29-198.09-.74-297.18-.34-73.91-52.92-136.74-118.44-141.79-79.07-6.1-112.19,43.89-129.84,109.99-39.54,148.12-7.04,298.75-14.63,448.01-.55,10.79-.07,21.63-6.27,33-60.63-108.63-27.14-231.8-54.89-345.89-19.85-81.61-77.14-144.6-148.74-138.1-70.35,6.38-106.49,65.07-108.53,153.98-3.62,157.93,56.91,309.4,43.03,468.39Z"/>
</svg>